<svg width="54" height="48" viewBox="0 0 54 48" fill="none" xmlns="http://www.w3.org/2000/svg">
<g filter="url(#filter0_d_418_1223)">
<rect x="4" y="4" width="46" height="40" rx="4" fill="#F6F7F8" shape-rendering="crispEdges"/>
<path d="M23.333 19.0469V29H22.0342V19.0469H23.333ZM26.5322 19.0469V20.127H18.8418V19.0469H26.5322ZM33.2041 26.4844C33.2041 26.252 33.1676 26.0469 33.0947 25.8691C33.0264 25.6868 32.9033 25.5228 32.7256 25.377C32.5524 25.2311 32.3109 25.0921 32.001 24.96C31.6956 24.8278 31.3083 24.6934 30.8389 24.5566C30.3467 24.4108 29.9023 24.249 29.5059 24.0713C29.1094 23.889 28.7699 23.6816 28.4873 23.4492C28.2048 23.2168 27.9883 22.9502 27.8379 22.6494C27.6875 22.3486 27.6123 22.0046 27.6123 21.6172C27.6123 21.2298 27.6921 20.8721 27.8516 20.5439C28.0111 20.2158 28.2389 19.931 28.5352 19.6895C28.8359 19.4434 29.1937 19.252 29.6084 19.1152C30.0231 18.9785 30.4857 18.9102 30.9961 18.9102C31.7435 18.9102 32.377 19.0537 32.8965 19.3408C33.4206 19.6234 33.8193 19.9948 34.0928 20.4551C34.3662 20.9108 34.5029 21.3984 34.5029 21.918H33.1904C33.1904 21.5443 33.1107 21.2139 32.9512 20.9268C32.7917 20.6351 32.5501 20.4072 32.2266 20.2432C31.903 20.0745 31.4928 19.9902 30.9961 19.9902C30.5267 19.9902 30.1393 20.0609 29.834 20.2021C29.5286 20.3434 29.3008 20.5348 29.1504 20.7764C29.0046 21.0179 28.9316 21.2936 28.9316 21.6035C28.9316 21.8132 28.9749 22.0046 29.0615 22.1777C29.1527 22.3464 29.2917 22.5036 29.4785 22.6494C29.6699 22.7952 29.9115 22.9297 30.2031 23.0527C30.4993 23.1758 30.8525 23.2943 31.2627 23.4082C31.8278 23.5677 32.3154 23.7454 32.7256 23.9414C33.1357 24.1374 33.473 24.3584 33.7373 24.6045C34.0062 24.846 34.2044 25.1217 34.332 25.4316C34.4642 25.737 34.5303 26.0833 34.5303 26.4707C34.5303 26.8763 34.4482 27.2432 34.2842 27.5713C34.1201 27.8994 33.8854 28.1797 33.5801 28.4121C33.2747 28.6445 32.9079 28.8245 32.4795 28.9521C32.0557 29.0752 31.5817 29.1367 31.0576 29.1367C30.5973 29.1367 30.1439 29.0729 29.6973 28.9453C29.2552 28.8177 28.8519 28.6263 28.4873 28.3711C28.1273 28.1159 27.8379 27.8014 27.6191 27.4277C27.4049 27.0495 27.2979 26.612 27.2979 26.1152H28.6104C28.6104 26.457 28.6764 26.751 28.8086 26.9971C28.9408 27.2386 29.1208 27.4391 29.3486 27.5986C29.5811 27.7581 29.8431 27.8766 30.1348 27.9541C30.431 28.027 30.7386 28.0635 31.0576 28.0635C31.5179 28.0635 31.9076 27.9997 32.2266 27.8721C32.5456 27.7445 32.7871 27.5622 32.9512 27.3252C33.1198 27.0882 33.2041 26.8079 33.2041 26.4844Z" fill="#195F8A"/>
</g>
<defs>
<filter id="filter0_d_418_1223" x="0" y="0" width="54" height="48" filterUnits="userSpaceOnUse" color-interpolation-filters="sRGB">
<feFlood flood-opacity="0" result="BackgroundImageFix"/>
<feColorMatrix in="SourceAlpha" type="matrix" values="0 0 0 0 0 0 0 0 0 0 0 0 0 0 0 0 0 0 127 0" result="hardAlpha"/>
<feOffset/>
<feGaussianBlur stdDeviation="2"/>
<feComposite in2="hardAlpha" operator="out"/>
<feColorMatrix type="matrix" values="0 0 0 0 0 0 0 0 0 0 0 0 0 0 0 0 0 0 0.14 0"/>
<feBlend mode="normal" in2="BackgroundImageFix" result="effect1_dropShadow_418_1223"/>
<feBlend mode="normal" in="SourceGraphic" in2="effect1_dropShadow_418_1223" result="shape"/>
</filter>
</defs>
</svg>
