<svg width="54" height="48" viewBox="0 0 54 48" fill="none" xmlns="http://www.w3.org/2000/svg">
<g filter="url(#filter0_d_418_1225)">
<rect x="4" y="4" width="46" height="40" rx="4" fill="#F6F7F8" shape-rendering="crispEdges"/>
<path d="M16.5098 19.0469L18.9023 22.8613L21.2949 19.0469H22.833L19.6885 23.9756L22.9082 29H21.3564L18.9023 25.1104L16.4482 29H14.8965L18.1162 23.9756L14.9717 19.0469H16.5098ZM30.4688 27.9268V29H25.4922V27.9268H30.4688ZM25.752 19.0469V29H24.4326V19.0469H25.752ZM37.2842 26.4844C37.2842 26.252 37.2477 26.0469 37.1748 25.8691C37.1064 25.6868 36.9834 25.5228 36.8057 25.377C36.6325 25.2311 36.391 25.0921 36.0811 24.96C35.7757 24.8278 35.3883 24.6934 34.9189 24.5566C34.4268 24.4108 33.9824 24.249 33.5859 24.0713C33.1895 23.889 32.8499 23.6816 32.5674 23.4492C32.2848 23.2168 32.0684 22.9502 31.918 22.6494C31.7676 22.3486 31.6924 22.0046 31.6924 21.6172C31.6924 21.2298 31.7721 20.8721 31.9316 20.5439C32.0911 20.2158 32.319 19.931 32.6152 19.6895C32.916 19.4434 33.2738 19.252 33.6885 19.1152C34.1032 18.9785 34.5658 18.9102 35.0762 18.9102C35.8236 18.9102 36.457 19.0537 36.9766 19.3408C37.5007 19.6234 37.8994 19.9948 38.1729 20.4551C38.4463 20.9108 38.583 21.3984 38.583 21.918H37.2705C37.2705 21.5443 37.1908 21.2139 37.0312 20.9268C36.8717 20.6351 36.6302 20.4072 36.3066 20.2432C35.9831 20.0745 35.5729 19.9902 35.0762 19.9902C34.6068 19.9902 34.2194 20.0609 33.9141 20.2021C33.6087 20.3434 33.3809 20.5348 33.2305 20.7764C33.0846 21.0179 33.0117 21.2936 33.0117 21.6035C33.0117 21.8132 33.055 22.0046 33.1416 22.1777C33.2327 22.3464 33.3717 22.5036 33.5586 22.6494C33.75 22.7952 33.9915 22.9297 34.2832 23.0527C34.5794 23.1758 34.9326 23.2943 35.3428 23.4082C35.9079 23.5677 36.3955 23.7454 36.8057 23.9414C37.2158 24.1374 37.5531 24.3584 37.8174 24.6045C38.0863 24.846 38.2845 25.1217 38.4121 25.4316C38.5443 25.737 38.6104 26.0833 38.6104 26.4707C38.6104 26.8763 38.5283 27.2432 38.3643 27.5713C38.2002 27.8994 37.9655 28.1797 37.6602 28.4121C37.3548 28.6445 36.988 28.8245 36.5596 28.9521C36.1357 29.0752 35.6618 29.1367 35.1377 29.1367C34.6774 29.1367 34.224 29.0729 33.7773 28.9453C33.3353 28.8177 32.932 28.6263 32.5674 28.3711C32.2074 28.1159 31.918 27.8014 31.6992 27.4277C31.485 27.0495 31.3779 26.612 31.3779 26.1152H32.6904C32.6904 26.457 32.7565 26.751 32.8887 26.9971C33.0208 27.2386 33.2008 27.4391 33.4287 27.5986C33.6611 27.7581 33.9232 27.8766 34.2148 27.9541C34.5111 28.027 34.8187 28.0635 35.1377 28.0635C35.598 28.0635 35.9876 27.9997 36.3066 27.8721C36.6257 27.7445 36.8672 27.5622 37.0312 27.3252C37.1999 27.0882 37.2842 26.8079 37.2842 26.4844Z" fill="#195F8A"/>
</g>
<defs>
<filter id="filter0_d_418_1225" x="0" y="0" width="54" height="48" filterUnits="userSpaceOnUse" color-interpolation-filters="sRGB">
<feFlood flood-opacity="0" result="BackgroundImageFix"/>
<feColorMatrix in="SourceAlpha" type="matrix" values="0 0 0 0 0 0 0 0 0 0 0 0 0 0 0 0 0 0 127 0" result="hardAlpha"/>
<feOffset/>
<feGaussianBlur stdDeviation="2"/>
<feComposite in2="hardAlpha" operator="out"/>
<feColorMatrix type="matrix" values="0 0 0 0 0 0 0 0 0 0 0 0 0 0 0 0 0 0 0.14 0"/>
<feBlend mode="normal" in2="BackgroundImageFix" result="effect1_dropShadow_418_1225"/>
<feBlend mode="normal" in="SourceGraphic" in2="effect1_dropShadow_418_1225" result="shape"/>
</filter>
</defs>
</svg>
