<svg width="18" height="20" viewBox="0 0 18 20" fill="none" xmlns="http://www.w3.org/2000/svg">
<path d="M8.90707 4C7.64717 4.0208 6.52151 4.2708 5.53012 4.75C4.53873 5.22913 3.67125 5.82286 2.9277 6.53119C2.20481 7.21872 1.60584 7.92708 1.1308 8.65625C0.655753 9.38542 0.304647 10.0417 0.0774527 10.625C-0.0258176 10.875 -0.0258176 11.125 0.0774527 11.375C0.304647 11.9583 0.655753 12.6146 1.1308 13.3438C1.60584 14.0729 2.20481 14.7812 2.9277 15.4688C3.67125 16.1771 4.53873 16.7708 5.53012 17.25C6.52151 17.7292 7.64717 17.9792 8.90707 18C10.167 17.9792 11.2926 17.7292 12.284 17.25C13.2754 16.7708 14.1429 16.1771 14.8864 15.4688C15.6093 14.7812 16.2082 14.0729 16.6833 13.3438C17.1584 12.6146 17.5198 11.9583 17.7676 11.375C17.8709 11.125 17.8709 10.875 17.7676 10.625C17.5198 10.0417 17.1584 9.38542 16.6833 8.65625C16.2082 7.92708 15.6093 7.21872 14.8864 6.53119C14.1429 5.82286 13.2754 5.22913 12.284 4.75C11.2926 4.2708 10.167 4.0208 8.90707 4ZM4.44577 11C4.44577 10.1875 4.642 9.4375 5.03442 8.75C5.42685 8.06253 5.97418 7.51048 6.67642 7.09381C7.37866 6.69794 8.12222 6.5 8.90707 6.5C9.6919 6.5 10.4354 6.69794 11.1377 7.09381C11.84 7.51048 12.3873 8.06253 12.7797 8.75C13.1721 9.4375 13.3683 10.1875 13.3683 11C13.3683 11.8125 13.1721 12.5625 12.7797 13.25C12.3873 13.9375 11.84 14.4896 11.1377 14.9062C10.4354 15.3021 9.6919 15.5 8.90707 15.5C8.12222 15.5 7.37866 15.3021 6.67642 14.9062C5.97418 14.4896 5.42685 13.9375 5.03442 13.25C4.642 12.5625 4.44577 11.8125 4.44577 11ZM8.90707 9C8.88642 9.5625 8.69019 10.0312 8.31842 10.4062C7.94665 10.7812 7.48191 10.9792 6.92425 11C6.69706 11 6.49054 10.9688 6.30466 10.9062C6.09812 10.8646 5.97417 10.9375 5.93286 11.125C5.93286 11.3333 5.96385 11.5521 6.02582 11.7812C6.27366 12.5938 6.7384 13.1979 7.41998 13.5938C8.10156 13.9896 8.85542 14.0938 9.68158 13.9062C10.4871 13.6562 11.086 13.1875 11.4785 12.5C11.8709 11.8125 11.9742 11.0521 11.7883 10.2188C11.6024 9.57292 11.2616 9.05208 10.7659 8.65625C10.2496 8.26042 9.67125 8.04167 9.03097 8C8.84509 8.04167 8.77281 8.16667 8.81412 8.375C8.87608 8.5625 8.90707 8.77083 8.90707 9Z" fill="#9CA3AF"/>
</svg>
