<svg width="18" height="14" viewBox="0 0 18 14" fill="none" xmlns="http://www.w3.org/2000/svg">
<path d="M9.06198 0C7.80208 0.0208 6.67642 0.2708 5.68503 0.75C4.69363 1.22913 3.82616 1.82286 3.08261 2.53119C2.35972 3.21872 1.76074 3.92708 1.2857 4.65625C0.810661 5.38542 0.459554 6.04167 0.23236 6.625C0.12909 6.875 0.12909 7.125 0.23236 7.375C0.459554 7.95833 0.810661 8.61458 1.2857 9.34375C1.76074 10.0729 2.35972 10.7812 3.08261 11.4688C3.82616 12.1771 4.69363 12.7708 5.68503 13.25C6.67642 13.7292 7.80208 13.9792 9.06198 14C10.3219 13.9792 11.4475 13.7292 12.4389 13.25C13.4303 12.7708 14.2978 12.1771 15.0413 11.4688C15.7642 10.7812 16.3631 10.0729 16.8382 9.34375C17.3133 8.61458 17.6747 7.95833 17.9225 7.375C18.0258 7.125 18.0258 6.875 17.9225 6.625C17.6747 6.04167 17.3133 5.38542 16.8382 4.65625C16.3631 3.92708 15.7642 3.21872 15.0413 2.53119C14.2978 1.82286 13.4303 1.22913 12.4389 0.75C11.4475 0.2708 10.3219 0.0208 9.06198 0ZM4.60068 7C4.60068 6.1875 4.7969 5.4375 5.18933 4.75C5.58176 4.06253 6.12909 3.51048 6.83133 3.09381C7.53357 2.69794 8.27713 2.5 9.06198 2.5C9.84681 2.5 10.5903 2.69794 11.2926 3.09381C11.9949 3.51048 12.5422 4.06253 12.9346 4.75C13.327 5.4375 13.5232 6.1875 13.5232 7C13.5232 7.8125 13.327 8.5625 12.9346 9.25C12.5422 9.9375 11.9949 10.4896 11.2926 10.9062C10.5903 11.3021 9.84681 11.5 9.06198 11.5C8.27713 11.5 7.53357 11.3021 6.83133 10.9062C6.12909 10.4896 5.58176 9.9375 5.18933 9.25C4.7969 8.5625 4.60068 7.8125 4.60068 7ZM9.06198 5C9.04133 5.5625 8.8451 6.03125 8.47333 6.40625C8.10155 6.78125 7.63682 6.97917 7.07916 7C6.85197 7 6.64545 6.96875 6.45956 6.90625C6.25302 6.86458 6.12908 6.9375 6.08777 7.125C6.08777 7.33333 6.11876 7.55208 6.18072 7.78125C6.42857 8.59375 6.8933 9.19792 7.57489 9.59375C8.25647 9.98958 9.01033 10.0938 9.83649 9.90625C10.642 9.65625 11.2409 9.1875 11.6334 8.5C12.0258 7.8125 12.1291 7.05208 11.9432 6.21875C11.7573 5.57292 11.4165 5.05208 10.9208 4.65625C10.4045 4.26042 9.82615 4.04167 9.18588 4C8.99999 4.04167 8.92772 4.16667 8.96902 4.375C9.03099 4.5625 9.06198 4.77083 9.06198 5Z" fill="#9CA3AF"/>
</svg>
