<svg width="20" height="22" viewBox="0 0 20 22" fill="none" xmlns="http://www.w3.org/2000/svg">
<path d="M9.90707 3.06897C8.64717 3.08977 7.52151 3.33977 6.53012 3.81897C5.53873 4.2981 4.67125 4.89183 3.9277 5.60016C3.20481 6.28769 2.60584 6.99605 2.1308 7.72522C1.65575 8.45439 1.30465 9.11064 1.07745 9.69397C0.974182 9.94397 0.974182 10.194 1.07745 10.444C1.30465 11.0273 1.65575 11.6836 2.1308 12.4127C2.60584 13.1419 3.20481 13.8502 3.9277 14.5377C4.67125 15.2461 5.53873 15.8398 6.53012 16.319C7.52151 16.7981 8.64717 17.0481 9.90707 17.069C11.167 17.0481 12.2926 16.7981 13.284 16.319C14.2754 15.8398 15.1429 15.2461 15.8864 14.5377C16.6093 13.8502 17.2082 13.1419 17.6833 12.4127C18.1584 11.6836 18.5198 11.0273 18.7676 10.444C18.8709 10.194 18.8709 9.94397 18.7676 9.69397C18.5198 9.11064 18.1584 8.45439 17.6833 7.72522C17.2082 6.99605 16.6093 6.28769 15.8864 5.60016C15.1429 4.89183 14.2754 4.2981 13.284 3.81897C12.2926 3.33977 11.167 3.08977 9.90707 3.06897ZM5.44577 10.069C5.44577 9.25647 5.642 8.50647 6.03442 7.81897C6.42685 7.1315 6.97418 6.57945 7.67642 6.16278C8.37866 5.76691 9.12222 5.56897 9.90707 5.56897C10.6919 5.56897 11.4354 5.76691 12.1377 6.16278C12.84 6.57945 13.3873 7.1315 13.7797 7.81897C14.1721 8.50647 14.3683 9.25647 14.3683 10.069C14.3683 10.8815 14.1721 11.6315 13.7797 12.319C13.3873 13.0065 12.84 13.5586 12.1377 13.9752C11.4354 14.3711 10.6919 14.569 9.90707 14.569C9.12222 14.569 8.37866 14.3711 7.67642 13.9752C6.97418 13.5586 6.42685 13.0065 6.03442 12.319C5.642 11.6315 5.44577 10.8815 5.44577 10.069ZM9.90707 8.06897C9.88642 8.63147 9.69019 9.10022 9.31842 9.47522C8.94665 9.85022 8.48191 10.0481 7.92425 10.069C7.69706 10.069 7.49054 10.0377 7.30466 9.97522C7.09812 9.93355 6.97417 10.0065 6.93286 10.194C6.93286 10.4023 6.96385 10.6211 7.02582 10.8502C7.27366 11.6627 7.7384 12.2669 8.41998 12.6627C9.10156 13.0586 9.85542 13.1627 10.6816 12.9752C11.4871 12.7252 12.086 12.2565 12.4785 11.569C12.8709 10.8815 12.9742 10.1211 12.7883 9.28772C12.6024 8.64189 12.2616 8.12105 11.7659 7.72522C11.2496 7.32939 10.6712 7.11064 10.031 7.06897C9.84509 7.11064 9.77281 7.23564 9.81412 7.44397C9.87608 7.63147 9.90707 7.8398 9.90707 8.06897Z" fill="#9CA3AF"/>
<rect x="0.500666" y="19.6235" width="26" height="2.38411" rx="1.19205" transform="rotate(-48.0259 0.500666 19.6235)" fill="#9CA3AF" stroke="white"/>
</svg>
