<svg width="54" height="48" viewBox="0 0 54 48" fill="none" xmlns="http://www.w3.org/2000/svg">
<g filter="url(#filter0_d_418_1227)">
<rect x="4" y="4" width="46" height="40" rx="4" fill="#F6F7F8" shape-rendering="crispEdges"/>
<path d="M14.332 26.0947V19.0469H15.6445V26.0947C15.6445 26.751 15.5101 27.3047 15.2412 27.7559C14.9723 28.207 14.6009 28.5511 14.127 28.7881C13.6576 29.0205 13.1175 29.1367 12.5068 29.1367C11.8962 29.1367 11.3538 29.0319 10.8799 28.8223C10.4059 28.6126 10.0345 28.2936 9.76562 27.8652C9.49674 27.4368 9.3623 26.8968 9.3623 26.2451H10.6816C10.6816 26.6644 10.7591 27.0085 10.9141 27.2773C11.069 27.5462 11.2832 27.7445 11.5566 27.8721C11.8346 27.9997 12.1514 28.0635 12.5068 28.0635C12.8532 28.0635 13.1631 27.9906 13.4365 27.8447C13.7145 27.6943 13.9333 27.4733 14.0928 27.1816C14.2523 26.8854 14.332 26.5231 14.332 26.0947ZM23.1846 26.4844C23.1846 26.252 23.1481 26.0469 23.0752 25.8691C23.0068 25.6868 22.8838 25.5228 22.7061 25.377C22.5329 25.2311 22.2913 25.0921 21.9814 24.96C21.6761 24.8278 21.2887 24.6934 20.8193 24.5566C20.3271 24.4108 19.8828 24.249 19.4863 24.0713C19.0898 23.889 18.7503 23.6816 18.4678 23.4492C18.1852 23.2168 17.9688 22.9502 17.8184 22.6494C17.668 22.3486 17.5928 22.0046 17.5928 21.6172C17.5928 21.2298 17.6725 20.8721 17.832 20.5439C17.9915 20.2158 18.2194 19.931 18.5156 19.6895C18.8164 19.4434 19.1742 19.252 19.5889 19.1152C20.0036 18.9785 20.4661 18.9102 20.9766 18.9102C21.724 18.9102 22.3574 19.0537 22.877 19.3408C23.401 19.6234 23.7998 19.9948 24.0732 20.4551C24.3467 20.9108 24.4834 21.3984 24.4834 21.918H23.1709C23.1709 21.5443 23.0911 21.2139 22.9316 20.9268C22.7721 20.6351 22.5306 20.4072 22.207 20.2432C21.8835 20.0745 21.4733 19.9902 20.9766 19.9902C20.5072 19.9902 20.1198 20.0609 19.8145 20.2021C19.5091 20.3434 19.2812 20.5348 19.1309 20.7764C18.985 21.0179 18.9121 21.2936 18.9121 21.6035C18.9121 21.8132 18.9554 22.0046 19.042 22.1777C19.1331 22.3464 19.2721 22.5036 19.459 22.6494C19.6504 22.7952 19.8919 22.9297 20.1836 23.0527C20.4798 23.1758 20.833 23.2943 21.2432 23.4082C21.8083 23.5677 22.2959 23.7454 22.7061 23.9414C23.1162 24.1374 23.4535 24.3584 23.7178 24.6045C23.9867 24.846 24.1849 25.1217 24.3125 25.4316C24.4447 25.737 24.5107 26.0833 24.5107 26.4707C24.5107 26.8763 24.4287 27.2432 24.2646 27.5713C24.1006 27.8994 23.8659 28.1797 23.5605 28.4121C23.2552 28.6445 22.8883 28.8245 22.46 28.9521C22.0361 29.0752 21.5622 29.1367 21.0381 29.1367C20.5778 29.1367 20.1243 29.0729 19.6777 28.9453C19.2357 28.8177 18.8324 28.6263 18.4678 28.3711C18.1077 28.1159 17.8184 27.8014 17.5996 27.4277C17.3854 27.0495 17.2783 26.612 17.2783 26.1152H18.5908C18.5908 26.457 18.6569 26.751 18.7891 26.9971C18.9212 27.2386 19.1012 27.4391 19.3291 27.5986C19.5615 27.7581 19.8236 27.8766 20.1152 27.9541C20.4115 28.027 20.7191 28.0635 21.0381 28.0635C21.4984 28.0635 21.888 27.9997 22.207 27.8721C22.526 27.7445 22.7676 27.5622 22.9316 27.3252C23.1003 27.0882 23.1846 26.8079 23.1846 26.4844ZM33.8555 23.709V24.3379C33.8555 25.0853 33.762 25.7552 33.5752 26.3477C33.3883 26.9401 33.1195 27.4437 32.7686 27.8584C32.4176 28.2731 31.9961 28.5898 31.5039 28.8086C31.0163 29.0273 30.4694 29.1367 29.8633 29.1367C29.2754 29.1367 28.7354 29.0273 28.2432 28.8086C27.7555 28.5898 27.3317 28.2731 26.9717 27.8584C26.6162 27.4437 26.3405 26.9401 26.1445 26.3477C25.9486 25.7552 25.8506 25.0853 25.8506 24.3379V23.709C25.8506 22.9616 25.9463 22.2939 26.1377 21.7061C26.3337 21.1136 26.6094 20.61 26.9648 20.1953C27.3203 19.776 27.7419 19.457 28.2295 19.2383C28.7217 19.0195 29.2617 18.9102 29.8496 18.9102C30.4557 18.9102 31.0026 19.0195 31.4902 19.2383C31.9824 19.457 32.404 19.776 32.7549 20.1953C33.1104 20.61 33.3815 21.1136 33.5684 21.7061C33.7598 22.2939 33.8555 22.9616 33.8555 23.709ZM32.5498 24.3379V23.6953C32.5498 23.1029 32.4883 22.5788 32.3652 22.123C32.2467 21.6673 32.0713 21.2845 31.8389 20.9746C31.6064 20.6647 31.3216 20.43 30.9844 20.2705C30.6517 20.111 30.2734 20.0312 29.8496 20.0312C29.4395 20.0312 29.068 20.111 28.7354 20.2705C28.4072 20.43 28.1247 20.6647 27.8877 20.9746C27.6553 21.2845 27.4753 21.6673 27.3477 22.123C27.2201 22.5788 27.1562 23.1029 27.1562 23.6953V24.3379C27.1562 24.9349 27.2201 25.4635 27.3477 25.9238C27.4753 26.3796 27.6576 26.7646 27.8945 27.0791C28.1361 27.389 28.4209 27.6237 28.749 27.7832C29.0817 27.9427 29.4531 28.0225 29.8633 28.0225C30.2917 28.0225 30.6722 27.9427 31.0049 27.7832C31.3376 27.6237 31.6178 27.389 31.8457 27.0791C32.0781 26.7646 32.2536 26.3796 32.3721 25.9238C32.4906 25.4635 32.5498 24.9349 32.5498 24.3379ZM43.4873 19.0469V29H42.1611L37.1504 21.3232V29H35.8311V19.0469H37.1504L42.1816 26.7441V19.0469H43.4873Z" fill="#195F8A"/>
</g>
<defs>
<filter id="filter0_d_418_1227" x="0" y="0" width="54" height="48" filterUnits="userSpaceOnUse" color-interpolation-filters="sRGB">
<feFlood flood-opacity="0" result="BackgroundImageFix"/>
<feColorMatrix in="SourceAlpha" type="matrix" values="0 0 0 0 0 0 0 0 0 0 0 0 0 0 0 0 0 0 127 0" result="hardAlpha"/>
<feOffset/>
<feGaussianBlur stdDeviation="2"/>
<feComposite in2="hardAlpha" operator="out"/>
<feColorMatrix type="matrix" values="0 0 0 0 0 0 0 0 0 0 0 0 0 0 0 0 0 0 0.14 0"/>
<feBlend mode="normal" in2="BackgroundImageFix" result="effect1_dropShadow_418_1227"/>
<feBlend mode="normal" in="SourceGraphic" in2="effect1_dropShadow_418_1227" result="shape"/>
</filter>
</defs>
</svg>
