<svg width="54" height="48" viewBox="0 0 54 48" fill="none" xmlns="http://www.w3.org/2000/svg">
<g filter="url(#filter0_d_483_2723)">
<rect x="4" y="4" width="46" height="40" rx="4" fill="#F6F7F8" shape-rendering="crispEdges"/>
<path d="M23.9736 27.9609V29H18.5938V27.9609H23.9736ZM23.7754 22.499L18.8809 29H18.1084V28.0703L22.9688 21.6035H23.7754V22.499ZM23.2148 21.6035V22.6494H18.1631V21.6035H23.2148ZM26.7832 21.6035V29H25.5117V21.6035H26.7832ZM25.416 19.6416C25.416 19.4365 25.4775 19.2633 25.6006 19.1221C25.7282 18.9808 25.915 18.9102 26.1611 18.9102C26.4027 18.9102 26.5872 18.9808 26.7148 19.1221C26.847 19.2633 26.9131 19.4365 26.9131 19.6416C26.9131 19.8376 26.847 20.0062 26.7148 20.1475C26.5872 20.2842 26.4027 20.3525 26.1611 20.3525C25.915 20.3525 25.7282 20.2842 25.6006 20.1475C25.4775 20.0062 25.416 19.8376 25.416 19.6416ZM30.0781 23.0254V31.8438H28.8066V21.6035H29.9688L30.0781 23.0254ZM35.0615 25.2402V25.3838C35.0615 25.9215 34.9977 26.4206 34.8701 26.8809C34.7425 27.3366 34.5557 27.7331 34.3096 28.0703C34.068 28.4076 33.7695 28.6696 33.4141 28.8564C33.0586 29.0433 32.6507 29.1367 32.1904 29.1367C31.721 29.1367 31.3063 29.0592 30.9463 28.9043C30.5863 28.7493 30.2809 28.5238 30.0303 28.2275C29.7796 27.9313 29.5791 27.5758 29.4287 27.1611C29.2829 26.7464 29.1826 26.2793 29.1279 25.7598V24.9941C29.1826 24.4473 29.2852 23.9574 29.4355 23.5244C29.5859 23.0915 29.7842 22.7223 30.0303 22.417C30.2809 22.1071 30.584 21.8724 30.9395 21.7129C31.2949 21.5488 31.7051 21.4668 32.1699 21.4668C32.6348 21.4668 33.0472 21.5579 33.4072 21.7402C33.7673 21.918 34.0703 22.1732 34.3164 22.5059C34.5625 22.8385 34.7471 23.2373 34.8701 23.7021C34.9977 24.1624 35.0615 24.6751 35.0615 25.2402ZM33.79 25.3838V25.2402C33.79 24.8711 33.7513 24.5247 33.6738 24.2012C33.5964 23.873 33.4756 23.5859 33.3115 23.3398C33.152 23.0892 32.9469 22.8932 32.6963 22.752C32.4456 22.6061 32.1471 22.5332 31.8008 22.5332C31.4818 22.5332 31.2038 22.5879 30.9668 22.6973C30.7344 22.8066 30.5361 22.9548 30.3721 23.1416C30.208 23.3239 30.0736 23.5335 29.9688 23.7705C29.8685 24.0029 29.7933 24.2445 29.7432 24.4951V26.2656C29.8343 26.5846 29.9619 26.8854 30.126 27.168C30.29 27.446 30.5088 27.6715 30.7822 27.8447C31.0557 28.0133 31.3997 28.0977 31.8145 28.0977C32.1562 28.0977 32.4502 28.027 32.6963 27.8857C32.9469 27.7399 33.152 27.5417 33.3115 27.291C33.4756 27.0404 33.5964 26.7533 33.6738 26.4297C33.7513 26.1016 33.79 25.7529 33.79 25.3838Z" fill="#195F8A"/>
</g>
<defs>
<filter id="filter0_d_483_2723" x="0" y="0" width="54" height="48" filterUnits="userSpaceOnUse" color-interpolation-filters="sRGB">
<feFlood flood-opacity="0" result="BackgroundImageFix"/>
<feColorMatrix in="SourceAlpha" type="matrix" values="0 0 0 0 0 0 0 0 0 0 0 0 0 0 0 0 0 0 127 0" result="hardAlpha"/>
<feOffset/>
<feGaussianBlur stdDeviation="2"/>
<feComposite in2="hardAlpha" operator="out"/>
<feColorMatrix type="matrix" values="0 0 0 0 0 0 0 0 0 0 0 0 0 0 0 0 0 0 0.14 0"/>
<feBlend mode="normal" in2="BackgroundImageFix" result="effect1_dropShadow_483_2723"/>
<feBlend mode="normal" in="SourceGraphic" in2="effect1_dropShadow_483_2723" result="shape"/>
</filter>
</defs>
</svg>
